<?xml version="1.0" encoding="UTF-8"?>
<svg width="120px" height="120px" viewBox="0 0 120 120" version="1.1" xmlns="http://www.w3.org/2000/svg" xmlns:xlink="http://www.w3.org/1999/xlink">
    <!-- Generator: Sketch 60 (88103) - https://sketch.com -->
    <title>Icon / Sunstar Engineering / Air Purfication</title>
    <desc>Created with Sketch.</desc>
    <g id="Icon-/-Sunstar-Engineering-/-Air-Purfication" stroke="none" stroke-width="1" fill="none" fill-rule="evenodd">
        <path d="M92.4489798,28 C82.8917801,28 75.7406289,36.042702 75.6345083,45.9316542 C75.6049753,48.6837725 75.6345083,49.7820997 75.6345083,50.687826 C75.6205554,51.6866859 76.5156514,52.6054011 77.5027831,52.6054011 C78.4899149,52.6054011 79.3850165,51.6866859 79.371057,50.687826 C79.371057,49.702938 79.3419261,48.6754442 79.371057,45.9611956 C79.4582346,37.8379991 84.9282817,31.7813043 92.4489798,31.7813043 L93.3831168,31.7813043 C100.903895,31.7813043 107.395176,37.9942899 107.395176,45.9611956 C107.395176,53.9281013 100.903885,60.1411058 93.3831168,60.1411058 L40.1372915,60.1411058 C39.1502588,60.1269259 38.2424089,61.0327373 38.2424089,62.0317579 C38.2424089,63.030684 39.1502588,63.9364955 40.1372915,63.9225722 L93.3831168,63.9225722 C102.940244,63.9225722 111.131725,56.0074973 111.131725,45.9611956 C111.131725,35.9148939 102.940234,28 93.3831168,28 L92.4489798,28 Z" id="Path" fill="#00587C"></path>
        <path d="M54.1493503,37.4532608 C49.1907506,37.4532608 44.807978,41.5967196 44.807978,46.9065217 L44.807978,48.7971739 C44.7940252,49.7960338 45.6891202,50.7147489 46.6762519,50.7147489 C47.6633846,50.7147489 48.5584862,49.7960338 48.5445267,48.7971739 L48.5445267,46.9065217 C48.5445267,43.7395091 51.2819126,41.2345652 54.1493503,41.2345652 L55.0834881,41.2345652 C57.9510147,41.2346597 60.6883117,43.7395091 60.6883117,46.9065217 C60.6883117,50.1324753 58.1552684,52.5784782 55.2878307,52.5784782 L34.5324676,52.5784782 C33.5454346,52.5643928 32.637585,53.4701759 32.637585,54.4691304 C32.637585,55.4680848 33.5454346,56.3739057 34.5324676,56.3599455 L55.2878307,56.3599455 C60.2464304,56.3599455 64.4248613,52.1573827 64.4248613,46.9065217 C64.4248613,41.5967196 60.041999,37.4532608 55.0834881,37.4532608 L54.1493503,37.4532608 Z" id="Path" fill="#00587C"></path>
        <path d="M34.3573169,67.4715218 C33.3789568,67.5178428 32.5303845,68.460711 32.5762447,69.450751 C32.622105,70.4408856 33.5541259,71.2994307 34.5324676,71.2528261 L100.856215,71.2528261 C105.546138,71.2528261 109.26345,75.0146568 109.26345,79.7607609 C109.26345,84.506865 105.546138,88.2686957 100.856215,88.2686957 L99.9220781,88.2686957 C95.2322325,88.2686957 91.4623549,84.4810576 91.5148419,79.7607609 C91.5252879,78.8212013 91.5148419,77.9252212 91.5148419,76.9247826 C91.5287948,75.9259511 90.6336998,75.0071887 89.6465681,75.0071887 C88.6594354,75.0071887 87.7643347,75.9259511 87.7782932,76.9247826 C87.7782932,77.950745 87.7881126,78.8483322 87.7782932,79.7311722 C87.7026745,86.5317535 93.2266582,92.05 99.9220781,92.05 L100.856215,92.05 C107.551556,92.05 113,86.5362911 113,79.7607609 C113,72.9852307 107.551556,67.4715218 100.856215,67.4715218 C78.6935682,67.4715218 56.5076176,67.4715218 34.3573169,67.4715218 Z" id="Path" fill="#00587C"></path>
        <path d="M45.5275295,75.3659905 C44.5491698,75.4123114 43.7005972,76.3551797 43.7464575,77.3452197 C43.7923188,78.3353542 44.7243384,79.1938994 45.7026804,79.1472948 L61.5830141,79.1472948 C62.5700476,79.1614747 63.4778966,78.2555687 63.4778966,77.2566426 C63.4778966,76.257622 62.5700476,75.3518106 61.5830141,75.3659905 C56.2366988,75.3659905 50.8607626,75.3659905 45.5275295,75.3659905 Z" id="Path" fill="#00587C"></path>
        <path d="M9.78284868,67.4716861 C8.80448892,67.5180071 7.95591633,68.4608753 8.00177665,69.4509153 C8.04763791,70.4410499 8.9796576,71.299595 9.95799959,71.2529904 L25.8383332,71.2529904 C26.8253668,71.2671703 27.7332158,70.3612643 27.7332158,69.3623383 C27.7332158,68.3633177 26.8253668,67.4575062 25.8383332,67.4716861 C20.4920179,67.4716861 15.1160817,67.4716861 9.78284868,67.4716861 Z" id="Path-Copy" fill="#00587C"></path>
    </g>
</svg>