<?xml version="1.0" encoding="UTF-8"?>
<svg width="120px" height="120px" viewBox="0 0 120 120" version="1.1" xmlns="http://www.w3.org/2000/svg" xmlns:xlink="http://www.w3.org/1999/xlink">
    <!-- Generator: Sketch 60 (88103) - https://sketch.com -->
    <title>Icon / Sunstar Engineering / Automotive</title>
    <desc>Created with Sketch.</desc>
    <defs>
        <polygon id="path-1" points="0 0.744049985 120.172698 0.744049985 120.172698 51.7499989 0 51.7499989"></polygon>
    </defs>
    <g id="Icon-/-Sunstar-Engineering-/-Automotive" stroke="none" stroke-width="1" fill="none" fill-rule="evenodd">
        <g id="Group-8" transform="translate(0.000000, 34.000000)">
            <path d="M65.5204436,18.4152946 C64.3382437,18.2899446 58.2133438,17.6378946 51.1465939,16.8144947 L50.473844,9.24404481 C52.6737939,9.28889481 54.0353939,9.4165448 54.0917439,9.4211448 C60.3994937,9.8098448 73.5393935,16.9122446 77.3792434,19.0546946 C73.4312935,19.0949446 69.4488436,18.8775946 65.5204436,18.4152946 M79.7999933,17.1238446 C79.0904434,16.7121447 62.3188437,7.04754485 54.3171439,6.55534486 C54.2308939,6.54729486 52.1585939,6.35294487 48.901794,6.35294487 C48.498144,6.35294487 48.112894,6.52199486 47.840344,6.81984486 C47.568944,7.11769485 47.433244,7.51559484 47.470044,7.91809484 L48.333694,17.6344446 C48.438344,18.6648446 49.250244,19.4939946 50.253044,19.6055446 C57.5624438,20.4588446 64.0012937,21.1453946 65.2007436,21.2718946 C68.9336436,21.7123445 72.7205935,21.9342945 76.4937434,21.9342945 C77.3815434,21.9342945 78.2693434,21.9216445 79.1548434,21.8974945 C79.1927934,21.8963445 79.2295934,21.8940445 79.2663934,21.8894445 C80.0242433,21.8100945 81.8147933,21.4650946 82.0746933,19.9930946 C82.3598933,18.3646946 80.5026433,17.4607946 79.7999933,17.1238446" id="Fill-1" fill="#01577D"></path>
            <path d="M25.2295045,13.9949247 C25.7608045,13.2290247 26.3944545,12.5332747 27.1212544,11.9295248 C28.5702544,10.5851748 31.0876044,10.3655248 31.2106544,10.3528748 C34.6388043,9.8445748 38.1233042,9.5501748 41.5871041,9.4754248 L42.1667041,16.4559247 C31.6833043,15.1311247 27.1672544,14.3928247 25.2295045,13.9949247 M42.9096041,6.58202486 L42.9015541,6.58202486 C38.8650542,6.60502486 34.7906043,6.91667486 30.8909544,7.49742484 C30.7483544,7.50777484 27.3604544,7.78722484 25.2260545,9.7686748 C23.8265045,10.9290248 22.6535045,12.4378247 21.8301045,14.1294747 C21.6173546,14.5457747 21.6231046,15.0920247 21.8427545,15.5060247 C22.3200045,16.4064747 22.5833545,16.9021246 42.9786041,19.4551246 C43.0499041,19.4654746 43.1614541,19.4712246 43.2603541,19.4712246 C43.3155541,19.4712246 43.3661541,19.4689246 43.4064041,19.4654746 C44.4345041,19.3711746 45.2073041,18.4373746 45.1268041,17.3713246 L44.3413541,7.90107484 C44.2792541,7.15472485 43.6559541,6.58202486 42.9096041,6.58202486" id="Fill-3" fill="#01577D"></path>
            <g id="Group-7" transform="translate(0.000000, 0.405950)">
                <mask id="mask-2" fill="white">
                    <use xlink:href="#path-1"></use>
                </mask>
                <g id="Clip-6"></g>
                <path d="M113.358373,39.0243292 L108.661773,39.0243292 C108.624973,39.0243292 108.522623,39.0243292 108.390373,39.0231792 C107.736023,33.3433293 102.917523,28.9307794 97.062873,28.9307794 C91.2300731,28.9307794 86.4276732,33.3111293 85.7445732,38.9599292 C84.6670232,38.9564792 84.0023233,38.9553292 83.9632233,38.9553292 L83.9597733,38.9553292 L79.0492734,38.9553292 C73.1727735,33.6825793 43.3314241,35.9469293 42.0284741,36.4115292 C40.4943742,36.9773292 39.0660742,37.8685792 37.9172242,38.9622292 L34.1199243,38.9622292 C33.4379743,33.3122793 28.6355744,28.9307794 22.8016245,28.9307794 C16.9676746,28.9307794 12.1652747,33.3122793 11.4833248,38.9622292 L8.00227483,38.9622292 L5.31702489,31.3687793 C10.7473248,30.6764794 11.1866248,30.4970794 11.5868248,29.7886794 C11.6155748,29.7369294 11.6443248,29.6840294 11.6753748,29.6276794 C11.6857248,29.6081294 11.6891748,29.5851294 11.6995248,29.5655794 C11.8179748,29.3332794 11.9019248,29.0791294 11.9019248,28.7996794 C11.9019248,28.5340294 11.8225748,28.2948294 11.7156248,28.0728794 C11.7121748,28.0648294 11.7110248,28.0567794 11.7075748,28.0498794 C11.6604248,27.9544294 11.6063748,27.8635794 11.5546248,27.7704294 C11.2349248,27.1977294 10.8255248,26.6882794 10.3931248,26.3317795 C9.5030248,25.5060795 8.30702483,25.3232295 7.93097484,25.2852795 C6.65447486,25.0978295 5.35497489,25.0000795 4.06812492,24.9920295 L4.05892492,24.9920295 C3.72427492,24.9920295 3.42757493,25.1116295 3.16192493,25.2772295 L2.90432494,24.5481295 C2.85947494,24.4158795 2.86177494,24.2744295 2.90777494,24.1467795 L11.4143248,17.5055296 C11.8225748,17.1858296 12.0284248,16.6706297 11.9502248,16.1577297 C11.4683748,12.9595797 11.0037748,9.21517981 10.9221248,7.55227984 C31.4001743,3.16272993 45.5946241,3.25357993 53.9263739,4.12757991 C63.0849737,5.08782989 67.3365236,7.16127985 67.3744736,7.18082985 C67.4101236,7.19807985 67.4469236,7.21532985 67.4837236,7.23027985 C75.9891234,10.6687798 86.7956732,18.1748296 86.9049232,18.2507296 C87.1452732,18.4186296 87.4327732,18.5083296 87.7260232,18.5083296 L88.6966232,18.5071796 C96.808723,18.7912296 104.636773,20.7094296 111.956523,24.2065795 C112.362473,24.4009295 112.759223,24.6205795 113.135273,24.8586295 C113.157123,24.8712795 113.178973,24.8850795 113.200823,24.8965795 C113.242223,24.9241795 113.285923,24.9494795 113.330773,24.9724795 C114.801623,25.7337795 116.134473,26.7124294 117.299453,27.8854294 C117.308623,31.3239294 115.235173,36.6587792 113.358373,39.0243292 M105.448673,41.8924291 C104.716123,45.858779 101.237373,48.875229 97.062873,48.875229 C92.8711231,48.875229 89.3831731,45.834629 88.6690232,41.8441291 C88.5816232,41.3553791 88.5287232,40.8539792 88.5287232,40.3410792 C88.5287232,39.8718792 88.5758732,39.4153292 88.6494732,38.9679792 C89.3095731,34.9142293 92.8251231,31.8057793 97.062873,31.8057793 C101.316723,31.8057793 104.843773,34.9372293 105.483173,39.0139792 C105.551023,39.4475292 105.597023,39.8879792 105.597023,40.3410792 C105.597023,40.8712292 105.541823,41.3887291 105.448673,41.8924291 M31.1966244,41.8372291 C30.4859244,45.831179 26.9956744,48.875229 22.8016245,48.875229 C18.6064246,48.875229 15.1173247,45.831179 14.4066247,41.8372291 C14.3203747,41.3507791 14.2663247,40.8516792 14.2663247,40.3410792 C14.2663247,39.8707292 14.3146247,39.4118792 14.3882247,38.9622292 C15.0506247,34.9107793 18.5661746,31.8057793 22.8016245,31.8057793 C27.0370744,31.8057793 30.5526244,34.9107793 31.2138744,38.9622292 C31.2874744,39.4118792 31.3357744,39.8707292 31.3357744,40.3410792 C31.3357744,40.8516792 31.2828744,41.3507791 31.1966244,41.8372291 M120.150273,27.1873794 C120.127273,26.8584794 119.992723,26.5479794 119.768473,26.3076295 C118.305673,24.7332795 116.599073,23.4326295 114.694673,22.4424795 C114.686623,22.4367295 114.677423,22.4309795 114.668223,22.4263795 L114.668223,22.4252295 C114.199023,22.1308295 113.705673,21.8571295 113.199673,21.6133296 C105.516523,17.9436796 97.306673,15.9311797 88.7472232,15.6333297 L88.1745232,15.6333297 C86.1493732,14.2452797 76.6032234,7.82712984 68.6118736,4.5852799 C67.2870736,3.93897992 49.896774,-3.95231992 9.30637481,4.9544299 C9.29372481,4.9578799 9.28567481,4.9659299 9.27417481,4.9693799 C9.10512481,5.0107799 8.94987481,5.07977989 8.81417482,5.17177989 C8.79807482,5.18212989 8.78197482,5.19247989 8.76702482,5.20282989 C8.64742482,5.28447989 8.53587482,5.37647989 8.44847482,5.48457989 C8.04022483,5.99287988 7.61817484,6.51842986 8.98322481,15.7552297 L0.911374981,22.0583795 C0.796374983,22.1480795 0.696324986,22.2538795 0.612374987,22.3734795 C-0.0097749998,23.2739295 -0.170774996,24.4319795 0.188024996,25.4876795 L5.62982488,40.8792792 L5.64362488,40.8735292 C5.84142488,41.4324291 6.36007487,41.8372291 6.98567486,41.8372291 L11.5017248,41.8372291 C12.2354247,47.429679 17.0090746,51.7502289 22.8016245,51.7502289 C28.5941744,51.7502289 33.3666743,47.429679 34.1015243,41.8372291 L38.2668242,41.8372291 L38.2737242,41.8372291 C38.7785742,41.8372291 39.2604242,41.6486291 39.6767242,41.2622291 C40.6162742,40.3146292 41.7731741,39.5705792 42.9634241,39.1289792 C46.013224,38.3297292 73.7500735,37.4028292 77.1736234,41.1345791 C77.5485234,41.5692791 78.0924734,41.8222791 78.6870234,41.8303291 L83.9551733,41.8303291 C84.1035233,41.8303291 84.7567232,41.8326291 85.7618232,41.8360791 C86.4966732,47.428529 91.2691731,51.7502289 97.062873,51.7502289 C102.833573,51.7502289 107.591123,47.460729 108.353573,41.8993291 L108.538723,41.8993291 L108.669823,41.8993291 L113.742473,41.8993291 C114.335873,41.9027791 114.859123,41.6670291 115.261623,41.2288791 C117.721473,38.4355292 120.451573,31.5493293 120.150273,27.1873794" id="Fill-5" fill="#01577D" mask="url(#mask-2)"></path>
            </g>
        </g>
    </g>
</svg>