<?xml version="1.0" encoding="UTF-8"?>
<svg width="120px" height="120px" viewBox="0 0 120 120" version="1.1" xmlns="http://www.w3.org/2000/svg" xmlns:xlink="http://www.w3.org/1999/xlink">
    <!-- Generator: Sketch 60 (88103) - https://sketch.com -->
    <title>Icon / Sunstar Engneering / Construction Chemicals</title>
    <desc>Created with Sketch.</desc>
    <g id="Icon-/-Sunstar-Engneering-/-Construction-Chemicals" stroke="none" stroke-width="1" fill="none" fill-rule="evenodd">
        <g id="アセット-3" transform="translate(15.000000, 15.000000)" fill="#00587C" fill-rule="nonzero">
            <path d="M2.76,88.8342857 C2.27003573,88.8342857 1.81729007,88.572893 1.57230792,88.1485715 C1.32732578,87.72425 1.32732578,87.2014643 1.57230792,86.7771428 C1.81729007,86.3528213 2.27003573,86.0914285 2.76,86.0914286 L6,86.0914286 L6,79.5 L5.64,79.3885714 C3.37928832,78.6812704 1.75993536,76.6916207 1.52645285,74.3343812 C1.29297033,71.9771417 2.49054107,69.7084782 4.56857143,68.5714286 L5.42571429,68.1171429 L4.56857143,67.6628571 C2.18618594,66.3756225 0.982329712,63.6348244 1.64620733,61.0095625 C2.31008494,58.3843005 4.67209794,56.5452413 7.38,56.5452413 C10.0879021,56.5452413 12.4499151,58.3843005 13.1137927,61.0095625 C13.7776703,63.6348244 12.5738141,66.3756225 10.1914286,67.6628571 L9.33428571,68.1171429 L10.1914286,68.5714286 C12.2691208,69.7099164 13.4653464,71.9798398 13.2299753,74.3372875 C12.9946041,76.6947353 11.3732003,78.6833423 9.11142857,79.3885714 L8.75142857,79.5 L8.75142857,86.0914286 L22.0028571,86.0914286 L22.0028571,79.5 L21.6428571,79.3885714 C18.8370078,78.5388016 17.0771561,75.761761 17.5066757,72.8616899 C17.9361954,69.9616189 20.425437,67.813897 23.3571429,67.813897 C26.2888487,67.813897 28.7780903,69.9616189 29.20761,72.8616899 C29.6371297,75.761761 27.8772779,78.5388016 25.0714286,79.3885714 L24.7114286,79.5 L24.7114286,86.0914286 L33.4285714,86.0914286 L33.4285714,37.3028571 C33.4285714,36.5454381 34.0425809,35.9314286 34.8,35.9314286 L43.0714286,35.9314286 L43.0714286,11.6228571 C43.0714286,10.8654381 43.6854381,10.2514286 44.4428571,10.2514286 L55.1142857,10.2514286 L55.1142857,1.37142857 C55.1142857,0.614009486 55.7282952,0 56.4857143,0 C57.2431334,0 57.8571429,0.614009486 57.8571429,1.37142857 L57.8571429,10.2857143 L68.0742857,10.2857143 C68.8317048,10.2857143 69.4457143,10.8997238 69.4457143,11.6571429 L69.4457143,21.0857143 L84.36,14.7257143 C84.5134614,14.6409273 84.6826424,14.5884228 84.8571429,14.5714286 C85.1275026,14.5712721 85.3922424,14.6486118 85.62,14.7942857 C86.0029324,15.0505922 86.2315532,15.4820738 86.2285714,15.9428571 L86.2285714,86.0828571 L87.9428571,86.0828571 C88.7002762,86.0828572 89.3142856,86.6968667 89.3142856,87.4542857 C89.3142856,88.2117048 88.7002762,88.8257142 87.9428571,88.8257143 L2.76,88.8342857 Z M77.3314286,73.9028571 C78.0888477,73.9028571 78.7028571,74.5168666 78.7028571,75.2742857 L78.7028571,86.0914286 L83.52,86.0914286 L83.52,18 L57.1628571,29.28 L57.1628571,86.0914286 L62.6914286,86.0914286 L62.6914286,75.2742857 C62.6914214,74.9090703 62.8370868,74.5589368 63.0961364,74.3014962 C63.355186,74.0440556 63.7062203,73.9005745 64.0714286,73.9028571 L77.3314286,73.9028571 Z M65.4428571,86.0914286 L75.96,86.0914286 L75.96,76.6628571 L65.4428571,76.6628571 L65.4428571,86.0914286 Z M36.2057143,86.0914286 L54.42,86.0914286 L54.42,38.6742857 L36.2057143,38.6742857 L36.2057143,86.0914286 Z M23.3485714,70.5685714 C21.6006848,70.5969749 20.2053774,72.0344082 20.2289609,73.7823665 C20.2525445,75.5303248 21.6861247,76.9295906 23.4341414,76.9108272 C25.1821581,76.8920638 26.5853717,75.4623475 26.5714286,73.7142857 C26.5646363,72.8731619 26.2239728,72.0691896 25.6243862,71.4792478 C25.0247996,70.889306 24.2154091,70.5617239 23.3742857,70.5685714 L23.3485714,70.5685714 Z M7.35428571,70.5685714 C5.60275408,70.5685714 4.18285714,71.9884684 4.18285714,73.74 C4.18285714,75.4915316 5.60275408,76.9114286 7.35428571,76.9114286 C9.10581735,76.9114286 10.5257143,75.4915316 10.5257143,73.74 C10.5257143,71.9984615 9.12148128,70.582692 7.38,70.5685714 L7.35428571,70.5685714 Z M7.35428571,59.2628571 C5.60275408,59.2628571 4.18285714,60.6827541 4.18285714,62.4342857 C4.18285714,64.1858173 5.60275408,65.6057143 7.35428571,65.6057143 C9.10581735,65.6057143 10.5257143,64.1858173 10.5257143,62.4342857 C10.5257143,60.6927472 9.12148128,59.2769777 7.38,59.2628571 L7.35428571,59.2628571 Z M45.8485714,35.9314286 L54.42,35.9314286 L54.42,28.3714286 C54.4222663,27.8160055 54.761368,27.317526 55.2771429,27.1114286 L62.1942857,24.1542857 L62.0057143,23.2542857 L45.8485714,23.2542857 L45.8485714,35.9314286 Z M45.8485714,20.5028571 L66.7028571,20.5028571 L66.7028571,12.9942857 L45.8485714,12.9942857 L45.8485714,20.5028571 Z" id="Shape"></path>
            <path d="M2.10857143,17.6314286 C1.74339408,17.6032206 1.40494065,17.4292132 1.16951309,17.1486352 C0.934085524,16.8680571 0.821501702,16.5045269 0.857142857,16.14 C1.10571429,13.3028571 2.36571429,11.8971429 3.42857143,11.2114286 C4.45291279,10.5664174 5.64736292,10.2439159 6.85714286,10.2857143 L7.42285714,10.2857143 L7.52571429,9.42857143 C7.6675603,6.81838693 9.15821351,4.47036455 11.46,3.23142857 C12.537114,2.63969822 13.7453433,2.32732675 14.9742857,2.32285714 C16.4215047,2.33965204 17.8361216,2.75484359 19.0628571,3.52285714 C20.9607966,4.81961382 22.1926399,6.88522388 22.4314286,9.17142857 L22.4314286,9.43714286 L22.6628571,9.55714286 C24.2479329,10.3829635 25.3823252,11.8724427 25.7571429,13.62 L25.8514286,14.0228571 L32.9142857,14.0228571 C33.6717048,14.0228572 34.2857142,14.6368667 34.2857142,15.3942857 C34.2857142,16.1517048 33.6717048,16.7657143 32.9142857,16.7657143 L24.5571429,16.7657143 C24.1780897,16.7515536 23.8228878,16.5770685 23.58,16.2857143 C23.3210742,16.0202329 23.1790997,15.6622105 23.1857143,15.2914286 C23.3877095,13.6633816 22.3723503,12.1312446 20.7942857,11.6828571 C20.1750007,11.5356091 19.7319533,10.9905905 19.7142857,10.3542857 C19.8088751,8.58437064 19.0148457,6.88379751 17.5971429,5.82 C16.8000079,5.31152246 15.8768462,5.03546447 14.9314286,5.02285714 C14.1595999,5.0272174 13.4015579,5.22778881 12.7285714,5.60571429 C11.247515,6.39456562 10.292766,7.90652315 10.2171429,9.58285714 L9.95142857,12 C9.88437505,12.7086959 9.28318633,13.246405 8.57142857,13.2342857 C8.43479781,13.2359653 8.29878281,13.2157077 8.16857143,13.1742857 C7.74048176,13.0606453 7.30001987,13.0001897 6.85714286,12.9942857 C6.18752601,12.9670255 5.52499684,13.1401187 4.95428571,13.4914286 C4.10374138,14.2078955 3.6192982,15.2680081 3.63428571,16.38 C3.57946296,17.1077725 2.95779815,17.6612058 2.22857143,17.6314286 L2.10857143,17.6314286 Z" id="Path"></path>
            <path d="M16.8514286,32.8114286 C16.1028936,32.7347209 15.5559543,32.0692144 15.6257143,31.32 C15.661244,29.7148907 16.4443322,28.2184631 17.7428571,27.2742857 C18.5079209,26.7708115 19.3987126,26.4916968 20.3142857,26.4685714 L20.7685714,26.4685714 L20.7685714,26.0142857 C20.9319529,23.8814078 22.1867032,21.9846922 24.0857143,21 C24.9789203,20.5091721 25.9808278,20.2498548 27,20.2457143 C28.1698503,20.2574393 29.3141292,20.589458 30.3085714,21.2057143 C31.8035569,22.2122653 32.7982173,23.8087107 33.0428571,25.5942857 L33.0428571,25.8342857 L33.2571429,25.9628571 C34.9433237,26.9163815 35.9206024,28.7638398 35.76,30.6942857 C35.7372745,31.4250507 35.145282,32.0095019 34.4142857,32.0228571 C34.0410872,32.0121104 33.6870651,31.8551093 33.4285714,31.5857143 C33.1770077,31.3207937 33.0439641,30.9649795 33.06,30.6 C33.2129794,29.4925483 32.5249282,28.4421722 31.4485714,28.14 C30.8112873,28.0006806 30.362092,27.4293042 30.3771429,26.7771429 C30.4680309,25.5196874 29.9083783,24.3033326 28.8942857,23.5542857 C28.3301094,23.1949912 27.6773578,22.9991658 27.0085714,22.9885714 C25.1860137,23.0250208 23.6955181,24.4521702 23.58,26.2714286 L23.3485714,28.1828571 C23.2889973,28.5784213 23.0607096,28.9286708 22.7228571,29.1428571 C22.5014459,29.2885078 22.2421654,29.3659939 21.9771429,29.3657143 C21.84332,29.367374 21.7101287,29.3471058 21.5828571,29.3057143 C21.2517292,29.226953 20.9116329,29.1923669 20.5714286,29.2028571 C20.0978339,29.1830426 19.6291488,29.3054381 19.2257143,29.5542857 C18.6425199,30.0639321 18.3107155,30.8026664 18.3171429,31.5771429 C18.2547897,32.2826065 17.6624943,32.8227502 16.9542857,32.8200105 L16.8514286,32.8114286 Z" id="Path"></path>
            <path d="M42.2914286,47.2457143 C41.5340095,47.2457143 40.92,46.6317048 40.92,45.8742857 L40.92,44.16 C40.92,43.4025809 41.5340095,42.7885714 42.2914286,42.7885714 C43.0488477,42.7885714 43.6628571,43.4025809 43.6628571,44.16 L43.6628571,45.8742857 C43.6628571,46.2380112 43.5183678,46.5868394 43.261175,46.8440322 C43.0039823,47.1012249 42.655154,47.2457143 42.2914286,47.2457143 Z" id="Path"></path>
            <path d="M48.2914286,47.2457143 C47.5340095,47.2457143 46.92,46.6317048 46.92,45.8742857 L46.92,44.16 C46.92,43.4025809 47.5340095,42.7885714 48.2914286,42.7885714 C49.0488477,42.7885714 49.6628571,43.4025809 49.6628571,44.16 L49.6628571,45.8742857 C49.6628571,46.6317048 49.0488477,47.2457143 48.2914286,47.2457143 L48.2914286,47.2457143 Z" id="Path"></path>
            <path d="M42.2914286,56.2371429 C41.5340095,56.2371429 40.92,55.6231334 40.92,54.8657143 L40.92,53.1428571 C40.92,52.3854381 41.5340095,51.7714286 42.2914286,51.7714286 C43.0488477,51.7714286 43.662884,52.3854381 43.662884,53.1428571 L43.662884,54.8571429 C43.6651397,55.2223512 43.5216587,55.5733855 43.2642181,55.832435 C43.0067775,56.0914846 42.656644,56.2371429 42.2914286,56.2371429 Z" id="Path"></path>
            <path d="M48.2914286,56.2371429 C47.5340095,56.2371429 46.92,55.6231334 46.92,54.8657143 L46.92,53.1428571 C46.92,52.3854381 47.5340095,51.7714286 48.2914286,51.7714286 C49.0488477,51.7714286 49.662884,52.3854381 49.662884,53.1428571 L49.662884,54.8571429 C49.6651397,55.2223512 49.5216587,55.5733855 49.2642181,55.832435 C49.0067775,56.0914846 48.656644,56.2371429 48.2914286,56.2371429 L48.2914286,56.2371429 Z" id="Path"></path>
            <path d="M42.2914286,64.4057143 C41.5340095,64.4057143 40.92,63.7917048 40.92,63.0342857 L40.92,61.32 C40.92,60.5625809 41.5340095,59.9485714 42.2914286,59.9485714 C43.0488477,59.9485714 43.6628571,60.5625809 43.6628571,61.32 L43.6628571,63.0342857 C43.6628571,63.3980112 43.5183678,63.7468394 43.261175,64.0040322 C43.0039823,64.2612249 42.655154,64.4057143 42.2914286,64.4057143 L42.2914286,64.4057143 Z" id="Path"></path>
            <path d="M48.2914286,64.4057143 C47.5340095,64.4057143 46.92,63.7917048 46.92,63.0342857 L46.92,61.32 C46.92,60.5625809 47.5340095,59.9485714 48.2914286,59.9485714 C49.0488477,59.9485714 49.6628571,60.5625809 49.6628571,61.32 L49.6628571,63.0342857 C49.6628571,63.7917048 49.0488477,64.4057143 48.2914286,64.4057143 L48.2914286,64.4057143 Z" id="Path"></path>
            <path d="M42.2914286,72.4114286 C41.5340095,72.4114286 40.92,71.7974191 40.92,71.04 L40.92,69.3257143 C40.92,68.5682952 41.5340095,67.9542857 42.2914286,67.9542857 C43.0488477,67.9542857 43.6628571,68.5682952 43.6628571,69.3257143 L43.6628571,71.04 C43.6628571,71.4037255 43.5183678,71.7525537 43.261175,72.0097464 C43.0039823,72.2669392 42.655154,72.4114286 42.2914286,72.4114286 L42.2914286,72.4114286 Z" id="Path"></path>
            <path d="M48.2914286,72.4114286 C47.5340095,72.4114286 46.92,71.7974191 46.92,71.04 L46.92,69.3257143 C46.92,68.5682952 47.5340095,67.9542857 48.2914286,67.9542857 C49.0488477,67.9542857 49.6628571,68.5682952 49.6628571,69.3257143 L49.6628571,71.04 C49.6628571,71.7974191 49.0488477,72.4114286 48.2914286,72.4114286 L48.2914286,72.4114286 Z" id="Path"></path>
            <path d="M42.2914286,80.3828571 C41.5340095,80.3828571 40.92,79.7688477 40.92,79.0114286 L40.92,77.2971429 C40.92,76.5397238 41.5340095,75.9257143 42.2914286,75.9257143 C43.0488477,75.9257143 43.6628571,76.5397238 43.6628571,77.2971429 L43.6628571,79.0114286 C43.6628571,79.7688477 43.0488477,80.3828571 42.2914286,80.3828571 Z" id="Path"></path>
            <path d="M48.2914286,80.3828571 C47.5340095,80.3828571 46.92,79.7688477 46.92,79.0114286 L46.92,77.2971429 C46.92,76.5397238 47.5340095,75.9257143 48.2914286,75.9257143 C49.0488477,75.9257143 49.6628571,76.5397238 49.6628571,77.2971429 L49.6628571,79.0114286 C49.6628571,79.7688477 49.0488477,80.3828571 48.2914286,80.3828571 L48.2914286,80.3828571 Z" id="Path"></path>
            <path d="M63.4971429,39.9 C62.7397238,39.9 62.1257143,39.2859905 62.1257143,38.5285714 C62.1257143,37.7711523 62.7397238,37.1571429 63.4971429,37.1571429 L77.8971429,37.1571429 C78.6545619,37.1571429 79.2685714,37.7711523 79.2685714,38.5285714 C79.2685714,39.2859905 78.6545619,39.9 77.8971429,39.9 L63.4971429,39.9 Z" id="Path"></path>
            <path d="M63.4971429,46.6714286 C62.7397238,46.6714286 62.1257143,46.0574191 62.1257143,45.3 C62.1257143,44.5425809 62.7397238,43.9285714 63.4971429,43.9285714 L77.8971429,43.9285714 C78.6545619,43.9285714 79.2685714,44.5425809 79.2685714,45.3 C79.2685714,46.0574191 78.6545619,46.6714286 77.8971429,46.6714286 L63.4971429,46.6714286 Z" id="Path"></path>
            <path d="M63.4971429,53.4428571 C62.7397238,53.4428571 62.1257143,52.8288477 62.1257143,52.0714286 C62.1257143,51.3140095 62.7397238,50.7 63.4971429,50.7 L77.8971429,50.7 C78.6545619,50.7 79.2685714,51.3140095 79.2685714,52.0714286 C79.2685714,52.8288477 78.6545619,53.4428571 77.8971429,53.4428571 L63.4971429,53.4428571 Z" id="Path"></path>
            <path d="M63.4971429,60.2228571 C62.7397238,60.2228571 62.1257143,59.6088477 62.1257143,58.8514286 C62.1257143,58.0940095 62.7397238,57.48 63.4971429,57.48 L77.8971429,57.48 C78.6545619,57.48 79.2685714,58.0940095 79.2685714,58.8514286 C79.2685714,59.6088477 78.6545619,60.2228571 77.8971429,60.2228571 L63.4971429,60.2228571 Z" id="Path"></path>
            <path d="M63.4971429,66.9942857 C62.7397238,66.9942857 62.1257143,66.3802762 62.1257143,65.6228571 C62.1257143,64.8654381 62.7397238,64.2514286 63.4971429,64.2514286 L77.8971429,64.2514286 C78.6545619,64.2514286 79.2685714,64.8654381 79.2685714,65.6228571 C79.2685714,66.3802762 78.6545619,66.9942857 77.8971429,66.9942857 L63.4971429,66.9942857 Z" id="Path"></path>
        </g>
    </g>
</svg>