<svg width="16" height="16" xmlns="http://www.w3.org/2000/svg"><path d="M14.667 8.042c.313 0 .573.23.618.532l.007.093V14.5a.625.625 0 01-.533.618l-.092.007H1.333a.625.625 0 01-.618-.533L.708 14.5V8.667a.625.625 0 011.244-.093l.006.093v5.208h12.084V8.667c0-.346.28-.625.625-.625zM8 .333c.345 0 .625.28.625.625v9.534l2.266-2.267a.625.625 0 01.957.797l-.073.086-3.333 3.337a.625.625 0 01-.798.072l-.086-.072-3.333-3.337a.625.625 0 01.797-.955l.087.072 2.265 2.267.001-9.534c0-.345.28-.625.625-.625z" fill="#007CAD" fill-rule="evenodd"/></svg>