<?xml version="1.0" encoding="UTF-8"?>
<svg width="120px" height="120px" viewBox="0 0 120 120" version="1.1" xmlns="http://www.w3.org/2000/svg" xmlns:xlink="http://www.w3.org/1999/xlink">
    <!-- Generator: Sketch 60 (88103) - https://sketch.com -->
    <title>Icon / Sunstar Engneering / Drive Components</title>
    <desc>Created with Sketch.</desc>
    <defs>
        <polygon id="path-1" points="0 0.000397779341 95.5326792 0.000397779341 95.5326792 95.141434 0 95.141434"></polygon>
    </defs>
    <g id="Icon-/-Sunstar-Engneering-/-Drive-Components" stroke="none" stroke-width="1" fill="none" fill-rule="evenodd">
        <g id="Group-2" transform="translate(60.000000, 60.000000) rotate(45.000000) translate(-60.000000, -60.000000) translate(12.000000, 12.000000)">
            <g id="Group-3">
                <mask id="mask-2" fill="white">
                    <use xlink:href="#path-1"></use>
                </mask>
                <g id="Clip-2"></g>
                <path d="M87.4310943,61.7092528 C87.1738868,62.4292528 86.901283,63.1420075 86.6069434,63.8429887 C85.8950943,65.5356679 85.0691321,67.1658566 84.1507925,68.738083 C83.7622642,69.4037434 83.3583396,70.0585358 82.9353962,70.6997434 C81.9292075,72.2239698 80.8252075,73.6766491 79.6360755,75.0532528 C79.130717,75.6392151 78.6108679,76.2097811 78.074717,76.7658566 C76.8104151,78.0772528 75.4655094,79.3071396 74.042717,80.4455547 C73.4404528,80.9282717 72.8246038,81.3919698 72.1969811,81.842083 C70.7162264,82.8989887 69.1693585,83.8689509 67.5554717,84.7320453 C66.8807547,85.0924981 66.1924528,85.4321208 65.496,85.7572528 C63.8467925,86.5252528 62.1432453,87.1972528 60.3871698,87.7497057 C59.6644528,87.9779321 58.9326792,88.186234 58.1936604,88.375517 C56.4357736,88.8247245 54.6307925,89.1543849 52.7932075,89.3735547 C52.0387925,89.4641208 51.2780377,89.5356679 50.5118491,89.5845736 C49.6034717,89.6434415 48.690566,89.6841962 47.7667925,89.6841962 C46.8439245,89.6841962 45.9301132,89.6434415 45.0217358,89.5845736 C44.2546415,89.5356679 43.4938868,89.4641208 42.7394717,89.3735547 C40.9018868,89.1534792 39.0978113,88.8247245 37.3399245,88.375517 C36.6009057,88.186234 35.8700377,87.9779321 35.1473208,87.7497057 C33.3912453,87.1972528 31.6876981,86.5261585 30.0393962,85.7581585 C29.3429434,85.4330264 28.6555472,85.0934038 27.9799245,84.7329509 C26.3660377,83.8698566 24.8191698,82.9008 23.3384151,81.842083 C22.7107925,81.3937811 22.0940377,80.930083 21.4926792,80.4464604 C20.0698868,79.3080453 18.7240755,78.0781585 17.4597736,76.7676679 C16.9236226,76.2115925 16.4037736,75.6401208 15.8993208,75.0550642 C14.709283,73.6784604 13.605283,72.2257811 12.6,70.7024604 C12.1761509,70.0603472 11.7722264,69.4055547 11.3836981,68.7398943 C10.4653585,67.1676679 9.63849057,65.5374792 8.92754717,63.8448 C8.63230189,63.1429132 8.35969811,62.4301585 8.10249057,61.7092528 C7.49026415,59.9975547 6.98762264,58.2360453 6.59909434,56.4319698 C6.43969811,55.690234 6.29750943,54.9421585 6.1770566,54.1877434 C5.89358491,52.3999698 5.73237736,50.5732528 5.68256604,48.719366 C5.67260377,48.3362717 5.65358491,47.9558943 5.65358491,47.5709887 C5.65358491,47.1851774 5.67260377,46.8048 5.68256604,46.4226113 C5.73237736,44.5678189 5.89358491,42.7420075 6.1770566,40.954234 C6.29750943,40.1989132 6.43969811,39.4517434 6.59909434,38.7100075 C6.98762264,36.9059321 7.48935849,35.1444226 8.10158491,33.4336302 C8.35879245,32.7127245 8.63139623,31.9999698 8.92664151,31.298083 C9.63849057,29.6063094 10.4644528,27.9752151 11.3818868,26.4038943 C11.7704151,25.738234 12.1752453,25.0834415 12.5981887,24.4413283 C13.6034717,22.9180075 14.7074717,21.4653283 15.8966038,20.0887245 C16.4019623,19.5036679 16.922717,18.9321962 17.4588679,18.3752151 C18.7222642,17.0647245 20.0680755,15.8357434 21.4899623,14.695517 C22.0922264,14.2137057 22.7089811,13.7491019 23.3375094,13.2998943 C24.8173585,12.2411774 26.3642264,11.2730264 27.9781132,10.4099321 C28.6537358,10.0485736 29.3411321,9.70895094 30.0375849,9.38472453 C31.6867925,8.61581887 33.3903396,7.94472453 35.1464151,7.39136604 C35.8691321,7.16404528 36.6,6.95483774 37.3390189,6.76555472 C39.0969057,6.31634717 40.9018868,5.98759245 42.7394717,5.76751698 C43.4938868,5.6778566 44.2546415,5.60630943 45.0217358,5.55649811 C45.9301132,5.49763019 46.8439245,5.45778113 47.7667925,5.45778113 C48.690566,5.45778113 49.602566,5.49853585 50.5109434,5.55649811 C51.2780377,5.60630943 52.0387925,5.6778566 52.7932075,5.76751698 C54.6307925,5.98759245 56.4348679,6.31634717 58.1936604,6.76555472 C58.9317736,6.95483774 59.6635472,7.16313962 60.3862642,7.39136604 C62.1423396,7.94381887 63.8449811,8.61491321 65.4941887,9.38381887 C66.1906415,9.70804528 66.8780377,10.0476679 67.5518491,10.4081208 C69.1666415,11.2712151 70.7135094,12.2402717 72.1942642,13.298083 C72.8227925,13.7472906 73.4386415,14.2118943 74.0409057,14.6937057 C75.4636981,15.8330264 76.8086038,17.0629132 78.0729057,18.3734038 C78.6090566,18.9303849 79.1289057,19.5009509 79.6342642,20.0860075 C80.8233962,21.463517 81.9283019,22.9152906 82.9335849,24.439517 C83.357434,25.0816302 83.7613585,25.7364226 84.1498868,26.402083 C85.0682264,27.9734038 85.8950943,29.6044981 86.6060377,31.2971774 C86.901283,31.9981585 87.1738868,32.7118189 87.4310943,33.4318189 C88.0433208,35.143517 88.5459623,36.9050264 88.9335849,38.7091019 C89.0938868,39.4508377 89.2360755,40.1980075 89.3556226,40.9533283 C89.6390943,42.7411019 89.8003019,44.5678189 89.8510189,46.4226113 C89.8618868,46.8048 89.88,47.186083 89.88,47.5709887 C89.88,47.9549887 89.8618868,48.3362717 89.8510189,48.7184604 C89.8003019,50.5732528 89.6390943,52.3999698 89.3556226,54.1877434 C89.2360755,54.9430642 89.0938868,55.690234 88.9344906,56.4310642 C88.5459623,58.2360453 88.0433208,59.9975547 87.4310943,61.7092528 M95.1020377,46.8256302 L92.517283,44.986234 C92.4575094,43.9456302 92.3551698,42.9168 92.2256604,41.8961208 L94.442717,39.6048 C94.9335849,39.0976302 94.8113208,38.4401208 94.1701132,38.1430642 L91.2810566,36.8026868 C91.032,35.7946868 90.7476226,34.8002717 90.4315472,33.8203472 L92.1876226,31.1577057 C92.5761509,30.5681208 92.3343396,29.9441208 91.6496604,29.7711396 L88.5468679,28.9859321 C88.1166792,28.0458566 87.6674717,27.1175547 87.1756981,26.2146113 L88.4073962,23.2757434 C88.6809057,22.6254792 88.3276981,22.0558189 87.6230943,22.0114415 L84.4233962,21.8103849 C83.832,20.9726491 83.2179623,20.1521208 82.5722264,19.3569509 L83.2487547,16.2278943 C83.3981887,15.5377811 82.9471698,15.0432906 82.245283,15.1284226 L79.0636981,15.5160453 C78.3310189,14.8005736 77.5738868,14.1122717 76.7950189,13.447517 L76.8883019,10.2423849 C76.9091321,9.53687547 76.3747925,9.13295094 75.7018868,9.34487547 L72.6552453,10.3048755 C71.8021132,9.73340377 70.9245283,9.19906415 70.0333585,8.68646038 L69.5379623,5.5202717 C69.429283,4.82200755 68.8306415,4.52313962 68.2075472,4.85642264 L65.394566,6.35710189 C64.4490566,5.95136604 63.4845283,5.58366792 62.5064151,5.2413283 L61.4377358,2.23181887 C61.2013585,1.56615849 60.557434,1.38412075 60.0067925,1.82517736 L57.5207547,3.82215849 C56.5136604,3.59755472 55.4975094,3.39830943 54.4677736,3.24253585 L52.8729057,0.501101887 C52.5169811,-0.109313208 51.8504151,-0.169992453 51.3903396,0.36525283 L49.3154717,2.7797434 C48.8010566,2.76253585 48.2857358,2.7408 47.7667925,2.7408 C47.2478491,2.7408 46.7325283,2.76253585 46.2181132,2.7797434 L44.1423396,0.36525283 C43.6822642,-0.169992453 43.0156981,-0.109313208 42.6597736,0.501101887 L41.0658113,3.24344151 C40.0351698,3.39830943 39.0190189,3.59755472 38.0128302,3.82215849 L35.5249811,1.82608302 C34.9743396,1.38412075 34.3304151,1.56706415 34.0940377,2.23181887 L33.0262642,5.24223396 C32.0481509,5.58366792 31.082717,5.9522717 30.1372075,6.35800755 L27.3242264,4.8573283 C26.7011321,4.52495094 26.1024906,4.82291321 25.9929057,5.52117736 L25.4975094,8.68736604 C24.6063396,9.19996981 23.7287547,9.73521509 22.8765283,10.3057811 L19.8289811,9.34668679 C19.1551698,9.13476226 18.6208302,9.53868679 18.6416604,10.2441962 L18.7358491,13.450234 C17.9569811,14.114083 17.1998491,14.8032906 16.4671698,15.5187623 L13.2855849,15.1311396 C12.5846038,15.0460075 12.1335849,15.5404981 12.2821132,16.2306113 L12.9595472,19.3596679 C12.3138113,20.1539321 11.6997736,20.9744604 11.109283,21.8121962 L7.90777358,22.0141585 C7.20316981,22.0585358 6.84996226,22.6272906 7.1234717,23.2775547 L8.35698113,26.2164226 C7.86520755,27.119366 7.41509434,28.0476679 6.98581132,28.9868377 L3.88392453,29.7720453 C3.19924528,29.9450264 2.95743396,30.5690264 3.34596226,31.1586113 L5.10203774,33.8203472 C4.78596226,34.8002717 4.50158491,35.7946868 4.2525283,36.8035925 L1.3634717,38.1421585 C0.722264151,38.4392151 0.6,39.0976302 1.09086792,39.6048 L3.30792453,41.8961208 C3.17841509,42.9168 3.07516981,43.9447245 3.01630189,44.9853283 L0.430641509,46.8256302 C-0.14354717,47.2358943 -0.14354717,47.906083 0.430641509,48.3154415 L3.01630189,50.1557434 C3.07516981,51.1963472 3.17841509,52.2242717 3.30792453,53.2449509 L1.09086792,55.5371774 C0.6,56.0443472 0.722264151,56.7027623 1.3634717,56.9989132 L4.2525283,58.3383849 C4.50249057,59.3472906 4.78596226,60.3408 5.1029434,61.3216302 L3.34596226,63.9842717 C2.95743396,64.5729509 3.19924528,65.1969509 3.88392453,65.3699321 L6.98671698,66.1560453 C7.416,67.0952151 7.86611321,68.023517 8.35788679,68.927366 L7.12437736,71.8653283 C6.85177358,72.5164981 7.20498113,73.0852528 7.90867925,73.1287245 L11.1101887,73.3306868 C11.7006792,74.1693283 12.3156226,74.9889509 12.9604528,75.7841208 L12.2839245,78.9131774 C12.1344906,79.6041962 12.5864151,80.0986868 13.2864906,80.0126491 L16.4689811,79.6250264 C17.2016604,80.3395925 17.9587925,81.0288 18.7376604,81.6917434 L18.6443774,84.8986868 C18.6235472,85.6051019 19.1578868,86.0090264 19.8307925,85.7971019 L22.8792453,84.8361962 C23.7314717,85.4076679 24.6081509,85.9420075 25.4993208,86.4546113 L25.994717,89.6217057 C26.1043019,90.3199698 26.7029434,90.6179321 27.3260377,90.2864604 L30.1390189,88.7848755 C31.0845283,89.1906113 32.0490566,89.5574038 33.0271698,89.8988377 L34.0949434,92.9092528 C34.3313208,93.5749132 34.9752453,93.7578566 35.5249811,93.3158943 L38.0128302,91.3189132 C39.0190189,91.543517 40.0351698,91.7427623 41.0658113,91.8985358 L42.6597736,94.6390642 C43.0156981,95.2494792 43.6822642,95.3119698 44.1423396,94.7758189 L46.2181132,92.362234 C46.7325283,92.3785358 47.2478491,92.4011774 47.7667925,92.4011774 C48.2857358,92.4011774 48.8001509,92.3785358 49.3154717,92.362234 L51.3903396,94.7767245 C51.8504151,95.3128755 52.5169811,95.2503849 52.8729057,94.6399698 L54.4677736,91.8985358 C55.4975094,91.7427623 56.5136604,91.543517 57.5207547,91.3189132 L60.0076981,93.3158943 C60.5583396,93.7578566 61.2013585,93.5749132 61.4386415,92.9092528 L62.5064151,89.8988377 C63.485434,89.5574038 64.4499623,89.1897057 65.3963774,88.7839698 L68.2084528,90.2846491 C68.8315472,90.6170264 69.4301887,90.3190642 69.5388679,89.6208 L70.0351698,86.4537057 C70.9263396,85.9411019 71.8039245,85.4058566 72.6570566,84.8352906 L75.7055094,85.7952906 C76.3784151,86.0072151 76.9127547,85.6032906 76.8910189,84.8977811 L76.7977358,81.6908377 C77.5766038,81.0269887 78.3337358,80.3377811 79.0664151,79.6223094 L82.2470943,80.0099321 C82.9489811,80.0950642 83.4,79.6005736 83.250566,78.9095547 L82.5740377,75.7823094 C83.2197736,74.9871396 83.8338113,74.1666113 84.4252075,73.3279698 L87.626717,73.1260075 C88.3304151,73.0825358 88.6836226,72.5137811 88.4101132,71.8626113 L87.1766038,68.9255547 C87.6674717,68.0226113 88.1175849,67.0934038 88.5468679,66.154234 L91.6496604,65.3681208 C92.3343396,65.1951396 92.5761509,64.5711396 92.1876226,63.9824604 L90.4315472,61.3207245 C90.7476226,60.3398943 91.032,59.3463849 91.2810566,58.3374792 L94.1701132,56.9989132 C94.8104151,56.7027623 94.9335849,56.0443472 94.442717,55.5371774 L92.2256604,53.2458566 C92.3551698,52.2242717 92.4575094,51.1963472 92.517283,50.1548377 L95.1020377,48.3154415 C95.6762264,47.906083 95.6762264,47.2358943 95.1020377,46.8256302" id="Fill-1" fill="#035577" mask="url(#mask-2)"></path>
            </g>
            <path d="M24.8684806,42.3235612 C27.9837472,42.3235612 30.5091697,44.8489837 30.5091697,47.9642502 C30.5091697,51.0795168 27.9837472,53.6049393 24.8684806,53.6049393 L10.3779146,53.6049393 C7.26264804,53.6049393 4.73722551,51.0795168 4.73722551,47.9642502 C4.73722551,44.8489837 7.26264804,42.3235612 10.3779146,42.3235612 L24.8684806,42.3235612 Z M24.8684806,45.4539959 L10.3779146,45.4539959 C8.99153943,45.4539959 7.86766029,46.5778751 7.86766029,47.9642502 C7.86766029,49.3506254 8.99153943,50.4745046 10.3779146,50.4745046 L24.8684806,50.4745046 C26.2548558,50.4745046 27.3787349,49.3506254 27.3787349,47.9642502 C27.3787349,46.5778751 26.2548558,45.4539959 24.8684806,45.4539959 Z" id="Rectangle-Copy" fill="#00587C" fill-rule="nonzero" transform="translate(17.623198, 47.964250) rotate(90.000000) translate(-17.623198, -47.964250) "></path>
            <path d="M85.5849057,42.3235612 C88.7001722,42.3235612 91.2255947,44.8489837 91.2255947,47.9642502 C91.2255947,51.0795168 88.7001722,53.6049393 85.5849057,53.6049393 L71.0943396,53.6049393 C67.9790731,53.6049393 65.4536505,51.0795168 65.4536505,47.9642502 C65.4536505,44.8489837 67.9790731,42.3235612 71.0943396,42.3235612 L85.5849057,42.3235612 Z M85.5849057,45.4539959 L71.0943396,45.4539959 C69.7079645,45.4539959 68.5840853,46.5778751 68.5840853,47.9642502 C68.5840853,49.3506254 69.7079645,50.4745046 71.0943396,50.4745046 L85.5849057,50.4745046 C86.9712808,50.4745046 88.09516,49.3506254 88.09516,47.9642502 C88.09516,46.5778751 86.9712808,45.4539959 85.5849057,45.4539959 Z" id="Rectangle-Copy-2" fill="#00587C" fill-rule="nonzero" transform="translate(78.339623, 47.964250) rotate(90.000000) translate(-78.339623, -47.964250) "></path>
            <path d="M55.6609335,11.5311083 C58.7762,11.5311083 61.3016226,14.0565309 61.3016226,17.1717974 C61.3016226,20.287064 58.7762,22.8124865 55.6609335,22.8124865 L41.1703674,22.8124865 C38.0551009,22.8124865 35.5296783,20.287064 35.5296783,17.1717974 C35.5296783,14.0565309 38.0551009,11.5311083 41.1703674,11.5311083 L55.6609335,11.5311083 Z M55.6609335,14.6615431 L41.1703674,14.6615431 C39.7839923,14.6615431 38.6601131,15.7854222 38.6601131,17.1717974 C38.6601131,18.5581726 39.7839923,19.6820517 41.1703674,19.6820517 L55.6609335,19.6820517 C57.0473086,19.6820517 58.1711878,18.5581726 58.1711878,17.1717974 C58.1711878,15.7854222 57.0473086,14.6615431 55.6609335,14.6615431 Z" id="Rectangle-Copy" fill="#00587C" fill-rule="nonzero" transform="translate(48.415650, 17.171797) rotate(180.000000) translate(-48.415650, -17.171797) "></path>
            <path d="M55.6609335,72.2475334 C58.7762,72.2475334 61.3016226,74.7729559 61.3016226,77.8882224 C61.3016226,81.003489 58.7762,83.5289115 55.6609335,83.5289115 L41.1703674,83.5289115 C38.0551009,83.5289115 35.5296783,81.003489 35.5296783,77.8882224 C35.5296783,74.7729559 38.0551009,72.2475334 41.1703674,72.2475334 L55.6609335,72.2475334 Z M55.6609335,75.3779681 L41.1703674,75.3779681 C39.7839923,75.3779681 38.6601131,76.5018473 38.6601131,77.8882224 C38.6601131,79.2745976 39.7839923,80.3984767 41.1703674,80.3984767 L55.6609335,80.3984767 C57.0473086,80.3984767 58.1711878,79.2745976 58.1711878,77.8882224 C58.1711878,76.5018473 57.0473086,75.3779681 55.6609335,75.3779681 Z" id="Rectangle-Copy-2" fill="#00587C" fill-rule="nonzero" transform="translate(48.415650, 77.888222) rotate(180.000000) translate(-48.415650, -77.888222) "></path>
            <circle id="Oval" fill="#00587C" transform="translate(28.147644, 67.852356) rotate(45.000000) translate(-28.147644, -67.852356) " cx="28.1476436" cy="67.8523564" r="2.71698113"></circle>
            <circle id="Oval-Copy" fill="#00587C" transform="translate(67.852356, 28.147644) rotate(45.000000) translate(-67.852356, -28.147644) " cx="67.8523564" cy="28.1476436" r="2.71698113"></circle>
            <circle id="Oval" fill="#00587C" transform="translate(28.147644, 28.147644) rotate(135.000000) translate(-28.147644, -28.147644) " cx="28.1476436" cy="28.1476436" r="2.71698113"></circle>
            <circle id="Oval-Copy" fill="#00587C" transform="translate(67.852356, 67.852356) rotate(135.000000) translate(-67.852356, -67.852356) " cx="67.8523564" cy="67.8523564" r="2.71698113"></circle>
            <path d="M48,26.7169811 C59.7542868,26.7169811 69.2830189,36.2457132 69.2830189,48 C69.2830189,59.7542868 59.7542868,69.2830189 48,69.2830189 C36.2457132,69.2830189 26.7169811,59.7542868 26.7169811,48 C26.7169811,36.2457132 36.2457132,26.7169811 48,26.7169811 Z M48,29.4339623 C37.7462605,29.4339623 29.4339623,37.7462605 29.4339623,48 C29.4339623,58.2537395 37.7462605,66.5660377 48,66.5660377 C58.2537395,66.5660377 66.5660377,58.2537395 66.5660377,48 C66.5660377,37.7462605 58.2537395,29.4339623 48,29.4339623 Z" id="Oval" fill="#00587C" fill-rule="nonzero"></path>
        </g>
    </g>
</svg>