<?xml version="1.0" encoding="UTF-8"?>
<svg width="120px" height="120px" viewBox="0 0 120 120" version="1.1" xmlns="http://www.w3.org/2000/svg" xmlns:xlink="http://www.w3.org/1999/xlink">
    <!-- Generator: Sketch 60 (88103) - https://sketch.com -->
    <title>Icon / Sunstar Engneering / Electronics</title>
    <desc>Created with Sketch.</desc>
    <g id="Icon-/-Sunstar-Engneering-/-Electronics" stroke="none" stroke-width="1" fill="none" fill-rule="evenodd">
        <g id="アセット-4" transform="translate(19.000000, 14.000000)" fill="#00587C" fill-rule="nonzero">
            <path d="M7.45234043,79.4680851 C6.72286073,79.4632699 6.13268754,78.8730967 6.12787234,78.143617 L6.12787234,13.6861702 C6.12787234,12.9546867 6.7208569,12.3617021 7.45234043,12.3617021 L59.5480851,12.3617021 C60.2795686,12.3617021 60.8725532,12.9546867 60.8725532,13.6861702 L60.8725532,17.6595745 L57.8704255,17.6595745 L57.8704255,15.3196809 L9.13,15.3196809 L9.13,76.4571277 L36.2021277,76.4571277 L36.2021277,79.4680851 L7.45234043,79.4680851 Z" id="Path"></path>
            <path d="M33.5531915,8.3706383 C32.9436219,8.3706383 32.4494681,7.8764845 32.4494681,7.26691489 C32.4494681,6.65734529 32.9436219,6.16319149 33.5531915,6.16319149 C34.1627611,6.16319149 34.6569149,6.65734529 34.6569149,7.26691489 C34.6569149,7.8764845 34.1627611,8.3706383 33.5531915,8.3706383 Z" id="Path"></path>
            <path d="M33.5531915,87.1764894 C32.4817968,87.1764894 31.5158986,86.5310968 31.1058936,85.5412572 C30.6958886,84.5514176 30.9225203,83.4120629 31.6801108,82.6544725 C32.4377012,81.896882 33.5770559,81.6702503 34.5668955,82.0802553 C35.5567351,82.4902603 36.2021277,83.4561585 36.2021277,84.5275532 C36.2021277,85.9905202 35.0161585,87.1764894 33.5531915,87.1764894 L33.5531915,87.1764894 Z" id="Path"></path>
            <path d="M57.1287234,30.4009574 C56.2997087,30.4009574 55.6276596,29.7289083 55.6276596,28.8998936 C55.6276596,28.070879 56.2997087,27.3988298 57.1287234,27.3988298 L65.6053191,27.3988298 C66.4343338,27.3988298 67.106383,28.070879 67.106383,28.8998936 C67.106383,29.7289083 66.4343338,30.4009574 65.6053191,30.4009574 L57.1287234,30.4009574 Z" id="Path"></path>
            <path d="M60.2279787,86.0551064 C59.3989641,86.0551064 58.7269149,85.3830572 58.7269149,84.5540426 C58.7269149,83.7250279 59.3989641,83.0529787 60.2279787,83.0529787 L62.5148936,83.0529787 C63.3439083,83.0529787 64.0159574,83.7250279 64.0159574,84.5540426 C64.0159574,85.3830572 63.3439083,86.0551064 62.5148936,86.0551064 L60.2279787,86.0551064 Z" id="Path"></path>
            <path d="M54.5769149,91.8297872 C49.6940426,91.8297872 45.9943617,90.4435106 43.4955319,87.7151064 C40.0254255,83.9271277 40.1667021,78.8853191 40.2285106,78.0023404 L40.1755319,71.4329787 L40.1755319,42.038617 L40.2285106,35.522234 C40.1667021,34.5244681 40.0254255,29.5179787 43.4955319,25.73 C45.9943617,23.0015957 49.676383,21.6153191 54.5062766,21.6153191 L68.2719149,21.6153191 C73.04,21.6153191 76.7308511,23.0015957 79.2296809,25.73 C81.5257149,28.4273666 82.6927874,31.9064446 82.4878723,35.442766 L82.5408511,41.9856383 L82.5408511,71.4418085 L82.4878723,77.9493617 C82.5585106,78.9382979 82.6997872,83.9447872 79.2296809,87.732766 C76.7308511,90.4611702 73.0488298,91.8474468 68.2189362,91.8474468 L54.5769149,91.8297872 Z M43.3454255,80.3510638 C43.6011285,82.3132388 44.430479,84.1562399 45.7294681,85.6489362 C47.6367021,87.7062766 50.5946809,88.7570213 54.5062766,88.7570213 L68.1482979,88.7570213 C72.1305319,88.7570213 75.0796809,87.7062766 76.9780851,85.6489362 C78.2838717,84.1606016 79.1141973,82.3154336 79.3621277,80.3510638 L79.4680851,79.9095745 L43.2659574,79.9095745 L43.3454255,80.3510638 Z M43.1776596,42.0562766 L43.1776596,71.4241489 L43.2659574,76.9074468 L79.4680851,76.9074468 L79.4680851,71.4153191 L79.4680851,42.038617 L79.4680851,36.6347872 L43.2659574,36.6347872 L43.1776596,42.0562766 Z M54.5151064,24.6174468 C50.5770213,24.6174468 47.6190426,25.6770213 45.6853191,27.7608511 C44.3772993,29.2743159 43.550324,31.1434646 43.3101064,33.1293617 L43.2394681,33.6326596 L79.4680851,33.6326596 L79.3974468,33.1293617 C79.1553242,31.1310629 78.3186145,29.2515423 76.9957447,27.7343617 C75.0885106,25.6681915 72.1393617,24.6174468 68.227766,24.6174468 L54.5151064,24.6174468 Z" id="Shape"></path>
            <path d="M4.15,91.8297872 C1.85659073,91.824918 0,89.9643719 0,87.6709574 L0,4.15 C0.00485678615,1.86003305 1.86003305,0.00485678615 4.15,0 L62.9475532,0 C65.2409676,0 67.1015137,1.85659073 67.106383,4.15 L67.106383,17.6595745 L64.1042553,17.6595745 L64.1042553,4.15 C64.0947802,3.52001405 63.5863689,3.01160273 62.956383,3.00212766 L4.15,3.00212766 C3.52001405,3.01160273 3.01160273,3.52001405 3.00212766,4.15 L3.00212766,87.6709574 C3.01160273,88.3009434 3.52001405,88.8093547 4.15,88.8188298 L38.8510638,88.8188298 C39.1909757,89.3263906 39.5687909,89.8075147 39.9812766,90.2580851 C40.517187,90.8357611 41.1086951,91.3592458 41.747234,91.8209574 L4.15,91.8297872 Z" id="Path"></path>
        </g>
    </g>
</svg>