<?xml version="1.0" encoding="UTF-8"?>
<svg width="120px" height="120px" viewBox="0 0 120 120" version="1.1" xmlns="http://www.w3.org/2000/svg" xmlns:xlink="http://www.w3.org/1999/xlink">
    <!-- Generator: Sketch 59.1 (86144) - https://sketch.com -->
    <title>Icon/Research/HealthAndBeauty</title>
    <desc>Created with Sketch.</desc>
    <g id="Icon/Research/HealthAndBeauty" stroke="none" stroke-width="1" fill="none" fill-rule="evenodd">
        <path d="M96.117,80.7200108 C93.435,79.6980108 90.681,78.8010108 87.92,78.0110108 C88.627,72.1320108 89.072,66.1670108 89.225,60.2560108 L89.225,60.2550108 C89.225,60.2530108 89.225,60.2510108 89.225,60.2500108 L89.225,60.2490108 L89.225,60.2490108 C89.233,59.9850108 89.231,59.7280108 89.217,59.4650108 C89.217,59.4640108 89.217,59.4640108 89.217,59.4620108 C88.338,40.7080108 72.354,26.1680108 53.604,27.0370108 C53.252,27.0570108 52.901,27.0760108 52.549,27.1030108 C52.548,27.1030108 52.548,27.1030108 52.548,27.1030108 C52.548,27.1030108 52.547,27.1030108 52.545,27.1030108 C49.624,27.3320108 47.432,29.8980108 47.657,32.8200108 C47.767,34.2370108 48.423,35.5260108 49.503,36.4500108 C50.475,37.2810108 51.686,37.7260108 52.951,37.7260108 C53.092,37.7260108 53.233,37.7200108 53.375,37.7090108 L53.375,37.7090108 C62.451,36.9950108 71.111,41.6400108 75.574,49.5400108 C73.344,50.1450108 71.342,51.4550108 69.908,53.2730108 C69.722,53.5100108 69.521,53.7340108 69.334,53.9680108 C69.674,52.9120108 69.861,51.7880108 69.861,50.6190108 C69.861,44.5800108 64.947,39.6660108 58.906,39.6660108 C52.867,39.6660108 47.954,44.5800108 47.954,50.6190108 C47.954,56.6580108 52.867,61.5720108 58.906,61.5720108 C60.527,61.5720108 62.062,61.2090108 63.447,60.5740108 C57.827,66.2870108 51.482,71.2110108 44.469,75.2360108 C43.237,75.9430108 42.354,77.0890108 41.983,78.4600108 C41.816,79.0770108 41.778,79.7050108 41.833,80.3230108 L25.028,80.3230108 C21.705,80.3230108 19,83.0270108 19,86.3520108 C19,89.6750108 21.705,92.3800108 25.028,92.3800108 L50.132,92.3800108 L50.33,92.3770108 C50.331,92.3770108 50.333,92.3760108 50.334,92.3760108 C50.339,92.3760108 50.345,92.3760108 50.349,92.3760108 C56.604,92.1470108 62.856,91.3110108 68.958,89.9190108 C70.058,91.4030108 71.806,92.3800108 73.79,92.3800108 L93.968,92.3800108 C97.292,92.3800108 99.995,89.6750108 99.995,86.3520108 C99.994,83.8700108 98.436,81.6050108 96.117,80.7200108 Z M50.354,50.6210108 C50.354,45.9040108 54.191,42.0680108 58.907,42.0680108 C63.623,42.0680108 67.461,45.9040108 67.461,50.6210108 C67.461,55.3370108 63.623,59.1740108 58.907,59.1740108 C54.191,59.1730108 50.354,55.3360108 50.354,50.6210108 Z M93.967,89.9820108 L73.789,89.9820108 C71.789,89.9820108 70.162,88.3540108 70.162,86.3540108 C70.162,84.3520108 71.789,82.7240108 73.789,82.7240108 L86.26,82.7240108 C86.924,82.7240108 87.461,82.1880108 87.461,81.5250108 C87.461,80.8610108 86.924,80.3250108 86.26,80.3250108 L73.789,80.3250108 C70.467,80.3250108 67.762,83.0290108 67.762,86.3540108 C67.762,86.8130108 67.824,87.2570108 67.922,87.6870108 C62.131,88.9750108 56.206,89.7610108 50.281,89.9800108 L50.281,89.9800108 L50.132,89.9820108 L25.028,89.9820108 C23.028,89.9820108 21.4,88.3540108 21.4,86.3540108 C21.4,84.3520108 23.028,82.7240108 25.028,82.7240108 L42.666,82.7240108 C43.38,83.8300108 44.447,84.6380108 45.728,84.9850108 C46.191,85.1090108 46.66,85.1720108 47.124,85.1720108 C48.042,85.1720108 48.947,84.9320108 49.766,84.4630108 C50.828,83.8540108 51.875,83.2170108 52.914,82.5680108 C57.783,82.2320108 62.664,81.5020108 67.425,80.3800108 C67.45,80.3740108 67.468,80.3570108 67.491,80.3500108 C67.583,80.3240108 67.665,80.2810108 67.747,80.2330108 C67.796,80.2050108 67.847,80.1830108 67.89,80.1490108 C67.966,80.0870108 68.027,80.0130108 68.087,79.9350108 C68.116,79.8960108 68.153,79.8640108 68.181,79.8210108 C68.23,79.7360108 68.257,79.6400108 68.286,79.5430108 C68.3,79.4940108 68.325,79.4510108 68.333,79.3990108 C68.335,79.3930108 68.339,79.3880108 68.339,79.3820108 C68.821,75.9970108 69.208,72.5660108 69.484,69.1800108 C69.486,69.1670108 69.478,69.1560108 69.48,69.1410108 C69.484,69.0580108 69.464,68.9770108 69.451,68.8940108 C69.439,68.8220108 69.437,68.7480108 69.414,68.6810108 C69.393,68.6190108 69.35,68.5670108 69.318,68.5090108 C69.273,68.4300108 69.234,68.3490108 69.173,68.2800108 C69.165,68.2710108 69.161,68.2590108 69.153,68.2500108 C69.112,68.2080108 69.057,68.1880108 69.012,68.1530108 C68.942,68.0980108 68.877,68.0430108 68.797,68.0050108 C68.721,67.9680108 68.639,67.9550108 68.557,67.9370108 C68.498,67.9220108 68.446,67.8910108 68.385,67.8860108 C68.371,67.8850108 68.362,67.8910108 68.348,67.8910108 C68.221,67.8850108 68.094,67.9090108 67.971,67.9430108 C67.951,67.9490108 67.928,67.9460108 67.91,67.9530108 C67.797,67.9910108 67.695,68.0570108 67.596,68.1290108 C67.565,68.1500108 67.532,68.1630108 67.502,68.1880108 C67.488,68.2020108 67.469,68.2050108 67.455,68.2190108 C61.762,73.6920108 55.409,78.4570108 48.571,82.3810108 C47.895,82.7690108 47.107,82.8700108 46.355,82.6680108 C45.602,82.4640108 44.974,81.9800108 44.586,81.3020108 C44.197,80.6260108 44.095,79.8400108 44.299,79.0880108 C44.503,78.3350108 44.987,77.7070108 45.664,77.3180108 C55.777,71.5120108 64.568,63.9220108 71.792,54.7590108 C72.978,53.2540108 74.657,52.1930108 76.524,51.7640108 C76.526,51.7640108 76.526,51.7640108 76.528,51.7640108 C77.643,51.5070108 78.342,50.3900108 78.085,49.2570108 C78.042,49.0760108 77.978,48.9050108 77.89,48.7460108 C73.038,39.7950108 63.353,34.5390108 53.187,35.3140108 C52.401,35.3650108 51.656,35.1300108 51.062,34.6230108 C50.469,34.1170108 50.11,33.4100108 50.05,32.6340108 C49.925,31.0290108 51.129,29.6190108 52.732,29.4940108 C52.732,29.4940108 52.732,29.4940108 52.734,29.4940108 C53.065,29.4700108 53.396,29.4490108 53.721,29.4330108 C71.151,28.6090108 86.005,42.1440108 86.819,59.5800108 C86.819,59.5810108 86.819,59.5810108 86.819,59.5820108 C86.819,59.5820108 86.819,59.5830108 86.819,59.5850108 C86.829,59.7840108 86.831,59.9810108 86.825,60.1800108 C86.825,60.1810108 86.825,60.1830108 86.825,60.1840108 C86.825,60.1850108 86.825,60.1850108 86.825,60.1860108 C86.667,66.3570108 86.194,72.5930108 85.423,78.7190108 C85.415,78.7730108 85.435,78.8230108 85.435,78.8750108 C85.435,78.9560108 85.437,79.0320108 85.451,79.1090108 C85.469,79.1860108 85.496,79.2550108 85.525,79.3260108 C85.554,79.3960108 85.586,79.4640108 85.627,79.5270108 C85.67,79.5910108 85.721,79.6440108 85.775,79.7000108 C85.83,79.7550108 85.882,79.8050108 85.947,79.8480108 C86.013,79.8940108 86.086,79.9250108 86.162,79.9570108 C86.209,79.9770108 86.246,80.0110108 86.297,80.0240108 C89.317,80.8540108 92.332,81.8410108 95.262,82.9600108 C96.658,83.4920108 97.596,84.8560108 97.596,86.3510108 C97.596,88.3540108 95.967,89.9820108 93.967,89.9820108 Z M66.068,78.2160108 C63.142,78.8760108 60.175,79.3840108 57.195,79.7410108 C60.542,77.4010108 63.749,74.8530108 66.788,72.1150108 C66.584,74.1520108 66.348,76.1880108 66.068,78.2160108 Z" id="Shape" fill="#00587C" fill-rule="nonzero"></path>
    </g>
</svg>