<?xml version="1.0" encoding="UTF-8"?>
<svg width="120px" height="120px" viewBox="0 0 120 120" version="1.1" xmlns="http://www.w3.org/2000/svg" xmlns:xlink="http://www.w3.org/1999/xlink">
    <!-- Generator: Sketch 59.1 (86144) - https://sketch.com -->
    <title>Icon/Research/MouthAndBody</title>
    <desc>Created with Sketch.</desc>
    <g id="Icon/Research/MouthAndBody" stroke="none" stroke-width="1" fill="none" fill-rule="evenodd">
        <path d="M43.6666667,20 L43.666,21.066 L52.7333333,21.0666667 C53.5333333,21.0666667 54.0666667,21.6 54.0666667,22.4 L54.0666667,40.2666667 C54.0666667,41.0666667 53.5333333,41.6 52.7333333,41.6 L43.666,41.6 L43.6666667,45.3333333 L47.1333333,54.6666667 L47.1333333,98.1333333 L44.4666667,98.1333333 L44.4666667,55.4666667 L41,46.1333333 L41,20 L43.6666667,20 Z M75.9333333,21.6 C76.7333333,21.6 77.2666667,22.1333333 77.2666667,22.9333333 L77.266,33.066 L81.8,33.0666667 C82.6,33.0666667 83.1333333,33.6 83.1333333,34.4 L83.1333333,94.6666667 C83.1333333,95.4666667 82.3333333,96 81.8,96 L62.0666667,96 C61.2666667,96 60.7333333,95.4666667 60.7333333,94.6666667 L60.7333333,34.4 C60.7333333,33.6 61.2666667,33.0666667 62.0666667,33.0666667 L66.333,33.066 L66.3333333,22.9333333 C66.3333333,22.1333333 66.8666667,21.6 67.6666667,21.6 L75.9333333,21.6 Z M80.466,90.133 L63.4,90.133 L63.4,93.3333333 L80.4666667,93.3333333 L80.466,90.133 Z M80.4666667,35.7333333 L63.4,35.7333333 L63.4,87.466 L80.466,87.466 L80.466,84.4 L76.2,84.4 C75.4,84.4 74.8666667,83.8666667 74.8666667,83.0666667 L74.8666667,51.6 C74.8666667,50.8 75.4,50.2666667 76.2,50.2666667 L80.466,50.266 L80.4666667,35.7333333 Z M80.466,81.733 L80.466,52.933 L77.5333333,52.9333333 L77.5333333,81.7333333 L80.466,81.733 Z M51.4,37.0666667 L43.6666667,37.0666667 L43.6666667,38.9333333 L51.4,38.9333333 L51.4,37.0666667 Z M51.4,32.5333333 L43.6666667,32.5333333 L43.6666667,34.4 L51.4,34.4 L51.4,32.5333333 Z M74.6,24.2666667 L69,24.2666667 L68.999,29.066 L71.1333333,29.0666667 L71.1333333,31.7333333 L68.999,31.733 L69,33.0666667 L74.6,33.0666667 L74.6,24.2666667 Z M51.399,28.266 L43.666,28.266 L43.6666667,29.8666667 L51.4,29.8666667 L51.399,28.266 Z M51.4,23.7333333 L43.6666667,23.7333333 L43.666,25.333 L51.399,25.333 L51.4,23.7333333 Z" id="Combined-Shape" fill="#00587C" fill-rule="nonzero"></path>
    </g>
</svg>