<?xml version="1.0" encoding="UTF-8"?>
<svg width="120px" height="120px" viewBox="0 0 120 120" version="1.1" xmlns="http://www.w3.org/2000/svg" xmlns:xlink="http://www.w3.org/1999/xlink">
    <!-- Generator: Sketch 59.1 (86144) - https://sketch.com -->
    <title>Icon/Research/SafetyAndEnvironment</title>
    <desc>Created with Sketch.</desc>
    <g id="Icon/Research/SafetyAndEnvironment" stroke="none" stroke-width="1" fill="none" fill-rule="evenodd">
        <path d="M70.3521443,72.2174941 C76.9736952,72.2174941 82.3829787,77.6119422 82.3829787,84.266343 C82.3829787,86.8777335 80.4663814,88.4951495 78.4501745,88.4951495 C78.4371052,88.4951495 78.4240359,88.4947962 78.4109666,88.4947962 C77.6536528,88.4866721 76.8807971,88.5700332 76.1181848,88.7406407 C75.1892037,88.9486901 74.3040226,89.308626 73.4912525,89.7890117 L73.4912525,89.7890117 L75.2238198,91.9549858 C76.1510347,91.4777792 77.2011718,91.2068558 78.3138298,91.2068558 C82.0534201,91.2068558 85.0957447,94.2491804 85.0957447,97.9887707 C85.0957447,101.728361 82.0534201,104.770686 78.3138298,104.770686 C74.5742395,104.770686 71.5319149,101.728361 71.5319149,97.9887707 C71.5319149,96.3399176 72.1239195,94.8270561 73.1058843,93.6501113 L73.1058843,93.6501113 L71.3743766,91.4859034 C70.2677235,92.6639078 69.4560132,94.1177808 69.0861868,95.7027002 C68.9088681,96.4624866 68.8191489,97.2318101 68.8191489,97.9887707 C68.8191489,98.7379603 68.2119556,99.3451537 67.462766,99.3451537 L67.462766,99.3451537 L54.6089178,99.3451537 C53.4891955,102.502983 50.4726562,104.770686 46.9361702,104.770686 C42.4488032,104.770686 38.7978723,101.119755 38.7978723,96.6323877 C38.7978723,92.1450207 42.4488032,88.4940898 46.9361702,88.4940898 C51.4235372,88.4940898 55.0744681,92.1450207 55.0744681,96.6323877 L55.0744681,96.6323877 L57.8776596,96.6323877 C57.8776596,91.3474393 53.8999959,86.7389162 48.6252909,85.9123703 C47.556786,85.7449417 48.17281,85.7813239 45.5797872,85.7813239 C41.840197,85.7813239 38.7978723,82.7389993 38.7978723,78.999409 C38.7978723,78.2502193 39.4050657,77.643026 40.1542553,77.643026 L40.1542553,77.643026 L51.0957447,77.643026 C51.3415891,77.643026 51.5828416,77.7097855 51.7937168,77.83624 L51.7937168,77.83624 L54.0331616,79.1799068 C55.7742063,76.5593325 58.7402343,74.93026 61.9468085,74.93026 C64.7726064,74.93026 67.4726562,76.189153 69.2705702,78.2820095 C69.9756067,77.9517444 70.7396318,77.7422821 71.5319149,77.6705776 L71.5319149,77.6705776 L71.5319149,75.0047905 C71.145487,74.9556922 70.7516415,74.93026 70.3521443,74.93026 L70.3521443,74.93026 L68.8191489,74.93026 C68.0699593,74.93026 67.462766,74.3230667 67.462766,73.5738771 C67.462766,72.8246874 68.0699593,72.2174941 68.8191489,72.2174941 L68.8191489,72.2174941 Z M78.3138298,93.9196217 C77.8454537,93.9196217 77.3957987,94.000157 76.9768742,94.146392 L76.9768742,94.146392 L79.3731508,97.1417377 C79.8408203,97.7263247 79.7461561,98.5800688 79.1612159,99.0480917 C78.576629,99.5157612 77.7228848,99.4214502 77.2545088,98.8361568 L77.2545088,98.8361568 L74.8592919,95.8418707 C74.4703915,96.4656656 74.2446809,97.2010795 74.2446809,97.9887707 C74.2446809,100.232454 76.0701463,102.05792 78.3138298,102.05792 C80.5575133,102.05792 82.3829787,100.232454 82.3829787,97.9887707 C82.3829787,95.7450872 80.5575133,93.9196217 78.3138298,93.9196217 Z M46.9361702,91.2068558 C43.9443567,91.2068558 41.5106383,93.6405742 41.5106383,96.6323877 C41.5106383,99.6242012 43.9443567,102.05792 46.9361702,102.05792 C48.9400141,102.05792 50.6920088,100.947028 51.6319399,99.3271392 L51.6319399,99.3271392 L48.2925532,99.3271392 C46.0488697,99.3271392 44.2234043,97.5196882 44.2234043,95.2760047 C44.2234043,94.5268151 44.8305976,93.9196217 45.5797872,93.9196217 C46.3289769,93.9196217 46.9361702,94.5268151 46.9361702,95.2760047 C46.9361702,96.0237815 47.5447765,96.6323877 48.2925532,96.6323877 L48.2925532,96.6323877 L52.3617021,96.6323877 C52.3617021,93.6405742 49.9279838,91.2068558 46.9361702,91.2068558 Z M74.2446809,75.7850639 L74.2446809,78.999409 C74.2446809,79.7485986 73.6374875,80.355792 72.8882979,80.355792 L72.8882979,80.355792 L72.1468791,80.355792 C70.7830785,80.355792 69.5174742,81.033277 68.7608669,82.1678348 C68.7583943,82.1720736 68.7555685,82.175959 68.7527427,82.1801977 L68.7527427,82.1801977 L64.84749,87.9024384 C64.5945811,88.2726179 64.1753033,88.4940898 63.7270612,88.4940898 C61.9379779,88.4940898 60.2859458,89.2927309 59.1810588,90.6611236 C60.1008561,92.5091954 60.5904255,94.5501279 60.5904255,96.6323877 L60.5904255,96.6323877 L66.1805601,96.6323877 C66.4935173,93.7557255 67.7322765,91.2559541 69.7078624,89.3001486 C71.3344622,87.6905035 73.3460771,86.5817311 75.5251205,86.0932213 C76.4911902,85.8770478 77.4696226,85.7724933 78.4385181,85.7820303 C79.1364902,85.7880352 79.6702128,85.1352759 79.6702128,84.4330651 C79.6702128,80.3812241 77.3763713,77.2336385 74.2446809,75.7850639 L74.2446809,75.7850639 Z M74.4074468,9 L74.4074468,30.7021277 L93.2340426,30.7021277 L93.2340426,90.0031915 L103,90.0031915 L103,92.7159574 L90.5,92.715 L90.5,90.003 L90.5212766,90.0031915 L90.5212766,33.4148936 L58.4382979,33.4148936 L58.438,68.6 L55.716,68.6 L55.7164894,30.7021277 L71.6946809,30.7021277 L71.6946809,11.712766 L30.4787234,11.712766 L30.4787234,90.0031915 L30.5,90.003 L30.5,92.715 L18,92.7159574 L18,90.0031915 L27.7659574,90.0031915 L27.7659574,9 L74.4074468,9 Z M50.7199136,80.355792 L41.7430601,80.355792 C42.3029214,81.9347066 43.8115442,83.0865724 45.5797872,83.0865724 C48.4698721,83.0865724 47.7281,83.0441854 49.0449218,83.2504687 C52.4365858,83.7817187 55.5294215,85.5761003 57.672436,88.2849808 C59.088514,86.8636045 60.9584857,85.9844281 62.9891747,85.8124077 L62.9891747,85.8124077 L63.107505,85.6389743 C60.1824509,85.295993 57.3527676,84.3355751 54.8123753,82.8110571 L54.8123753,82.8110571 L50.7199136,80.355792 Z M61.9468085,77.643026 C59.6985331,77.643026 57.6152136,78.7638081 56.3626787,80.575851 C58.9514628,82.0943641 61.8761636,82.9459889 64.8708029,83.0558418 L64.8708029,83.0558418 L66.5079995,80.6563862 C66.6853183,80.3911144 66.8795919,80.1410313 67.0883477,79.9064901 C65.8026097,78.490059 63.9188622,77.643026 61.9468085,77.643026 Z M86.9585106,56.9797872 L86.9585106,66.1037234 L84.2457447,66.1037234 L84.2457447,56.9797872 L86.9585106,56.9797872 Z M79.543617,56.9797872 L79.543617,66.1037234 L76.8308511,66.1037234 L76.8308511,56.9797872 L79.543617,56.9797872 Z M72.1287234,56.9797872 L72.1287234,66.1037234 L69.4159574,66.1037234 L69.4159574,56.9797872 L72.1287234,56.9797872 Z M64.7047872,56.9797872 L64.7047872,66.1037234 L61.9920213,66.1037234 L61.9920213,56.9797872 L64.7047872,56.9797872 Z M52.7324468,53.7154255 L52.7324468,62.8393617 L50.0196809,62.8393617 L50.0196809,53.7154255 L52.7324468,53.7154255 Z M45.3175532,53.7154255 L45.3175532,62.8393617 L42.6047872,62.8393617 L42.6047872,53.7154255 L45.3175532,53.7154255 Z M37.893617,53.7154255 L37.893617,62.8393617 L35.1808511,62.8393617 L35.1808511,53.7154255 L37.893617,53.7154255 Z M87.1031915,42.15 L87.1031915,51.2739362 L84.3904255,51.2739362 L84.3904255,42.15 L87.1031915,42.15 Z M79.6792553,42.15 L79.6792553,51.2739362 L76.9664894,51.2739362 L76.9664894,42.15 L79.6792553,42.15 Z M72.2643617,42.15 L72.2643617,51.2739362 L69.5515957,51.2739362 L69.5515957,42.15 L72.2643617,42.15 Z M64.8494681,42.15 L64.8494681,51.2739362 L62.1367021,51.2739362 L62.1367021,42.15 L64.8494681,42.15 Z M52.587766,35.7388298 L52.587766,44.862766 L49.875,44.862766 L49.875,35.7388298 L52.587766,35.7388298 Z M45.1728723,35.7388298 L45.1728723,44.862766 L42.4601064,44.862766 L42.4601064,35.7388298 L45.1728723,35.7388298 Z M37.7579787,35.7388298 L37.7579787,44.862766 L35.0452128,44.862766 L35.0452128,35.7388298 L37.7579787,35.7388298 Z M37.6132979,17.7712766 L37.6132979,26.8952128 L34.9005319,26.8952128 L34.9005319,17.7712766 L37.6132979,17.7712766 Z M52.4430851,17.7712766 L52.4430851,26.8952128 L49.7303191,26.8952128 L49.7303191,17.7712766 L52.4430851,17.7712766 Z M59.8579787,17.7712766 L59.8579787,26.8952128 L57.1452128,26.8952128 L57.1452128,17.7712766 L59.8579787,17.7712766 Z M67.2728723,17.7712766 L67.2728723,26.8952128 L64.5601064,26.8952128 L64.5601064,17.7712766 L67.2728723,17.7712766 Z M45.0281915,17.7712766 L45.0281915,26.8952128 L42.3154255,26.8952128 L42.3154255,17.7712766 L45.0281915,17.7712766 Z" id="Combined-Shape" fill="#00587C" fill-rule="nonzero"></path>
    </g>
</svg>