<svg width="174" height="26" fill="none" xmlns="http://www.w3.org/2000/svg">
    <g clip-path="url(#clip0)" fill="#0F4D7A">
        <path
            d="M7.555 25.3A14.134 14.134 0 010 22.896l.721-2.377s3.469 2.487 7.13 2.542c3.798.055 6.36-1.766 6.36-4.582 0-2.576-2.308-3.504-5.083-4.472C5.371 12.77.824 11.39.886 7.027.879 2.44 5.11.048 10.138 0c2.512.039 4.945.887 6.937 2.418L15.95 4.383A9.361 9.361 0 009.664 2.06c-2.569 0-5.041 1.278-4.993 3.716.055 2.693 2.603 3.881 5.927 4.987 3.434 1.168 7.5 2.748 7.5 6.808 0 5.234-4.08 7.7-10.543 7.728zm82.601 0a14.134 14.134 0 01-7.555-2.404l.686-2.377s3.435 2.487 7.13 2.542c3.798.055 6.36-1.766 6.36-4.582 0-2.576-2.308-3.504-5.082-4.472-3.758-1.237-8.298-2.617-8.243-6.98C83.487 2.44 87.711.048 92.725 0c2.512.039 4.945.887 6.937 2.418l-1.12 1.965a9.41 9.41 0 00-6.277-2.322c-2.57 0-5.042 1.278-4.994 3.716.055 2.693 2.603 3.881 5.935 4.987 3.434 1.168 7.5 2.748 7.5 6.808 0 5.234-4.087 7.7-10.55 7.728zm-55.532-.02c-6.608 0-11.045-2.309-11.045-10.992V.469H27.7v13.36c0 6.595 2.013 9.068 7.514 9.068 4.32 0 7.24-2.336 7.24-9.068V.468h3.015V14.26c0 7.2-3.098 11.019-10.845 11.019zm38.656-.468L57.022 6.822v17.99h-3.029V.467h2.143l16.285 18.094V.467h2.988v24.345h-2.13zm43.121-22.188v22.188H112.3V2.624h-8.51V.467h21.08v2.157h-8.469zm49.405 11.286c2.603-1.016 5.406-3.16 5.461-6.937.041-3.18-2.494-6.506-8.737-6.506h-9.19v24.345h3.949v-9.459h3.531a3.108 3.108 0 011.538.24c1.477.839 7.246 9.22 7.246 9.22h4.403l-8.201-10.902zm-5.083-1.442h-3.434V2.693h5.179c2.96 0 5.069 1.67 5.069 4.41-.007 3.888-3.661 5.138-6.814 5.365zM143.758 24.73l-3.949-9.617h-8.544l-3.909 9.617h-2.884L134.211.343h3.709l9.898 24.387h-4.06zm-8.317-20.368l-3.565 9.205h7.349l-3.784-9.205z" />
    </g>
    <defs>
        <clipPath id="clip0">
            <path fill="#fff" d="M0 0h174v25.3H0z" />
        </clipPath>
    </defs>
</svg>