<svg width="24" height="24" xmlns="http://www.w3.org/2000/svg"><g fill="none" fill-rule="evenodd"><rect fill="#FFF" width="24" height="24" rx="2"/><path d="M22 0a2 2 0 012 2v20a2 2 0 01-2 2H2a2 2 0 01-2-2V2a2 2 0 012-2h20zm-6.826 5.25a3.388 3.388 0 00-3.298 4.156 9.61 9.61 0 01-6.977-3.537 3.39 3.39 0 001.047 4.52 3.37 3.37 0 01-1.533-.423C4.376 11.534 5.5 13 7.128 13.327c-.476.13-.998.16-1.529.058a3.388 3.388 0 003.163 2.35 6.806 6.806 0 01-5.012 1.403 9.583 9.583 0 005.19 1.521c6.284 0 9.835-5.308 9.62-10.07a6.892 6.892 0 001.69-1.752c-.607.27-1.26.451-1.944.533a3.39 3.39 0 001.488-1.873 6.781 6.781 0 01-2.15.822 3.38 3.38 0 00-2.47-1.069z" fill="#1DA1F2"/></g></svg>