<svg width="32" height="32" xmlns="http://www.w3.org/2000/svg"><g fill="none" fill-rule="evenodd"><rect fill="#FFF" width="32" height="32" rx="2"/><path d="M30 0a2 2 0 012 2v28a2 2 0 01-2 2H2a2 2 0 01-2-2V2a2 2 0 012-2h28zM16.152 8.45h-.317c-1.026.004-6.739.04-8.277.44-.907.253-1.653 1-1.906 1.92-.397 1.528-.436 4.535-.44 5.103v.188c.004.57.043 3.585.44 5.09.253.92.986 1.652 1.906 1.905 1.55.412 7.253.45 8.277.453h.317c1.028-.003 6.752-.04 8.29-.44a2.681 2.681 0 001.893-1.905c.41-1.517.449-4.523.453-5.09v-.258c-.005-.714-.047-3.573-.453-5.047a2.664 2.664 0 00-1.892-1.892c-1.54-.424-7.263-.463-8.291-.466zm-2.304 4.318l5.61 3.239-5.61 3.225v-6.464z" fill="red"/></g></svg>
